<?xml version="1.0" encoding="UTF-8" standalone="no"?>
<!-- Created with Inkscape (http://www.inkscape.org/) -->

<svg
   width="10.000003mm"
   height="10.508131mm"
   viewBox="0 0 10.000003 10.508131"
   version="1.1"
   id="svg1"
   xml:space="preserve"
   inkscape:version="1.4.2 (ebf0e940, 2025-05-08)"
   sodipodi:docname="oshw-logo-filled-white-small.svg"
   xmlns:inkscape="http://www.inkscape.org/namespaces/inkscape"
   xmlns:sodipodi="http://sodipodi.sourceforge.net/DTD/sodipodi-0.dtd"
   xmlns="http://www.w3.org/2000/svg"
   xmlns:svg="http://www.w3.org/2000/svg"><sodipodi:namedview
     id="namedview1"
     pagecolor="#ffffff"
     bordercolor="#666666"
     borderopacity="1.0"
     inkscape:showpageshadow="2"
     inkscape:pageopacity="0.0"
     inkscape:pagecheckerboard="true"
     inkscape:deskcolor="#d1d1d1"
     inkscape:document-units="mm"
     inkscape:zoom="3.5954826"
     inkscape:cx="39.494003"
     inkscape:cy="14.323529"
     inkscape:window-width="976"
     inkscape:window-height="1186"
     inkscape:window-x="2240"
     inkscape:window-y="25"
     inkscape:window-maximized="0"
     inkscape:current-layer="layer1" /><defs
     id="defs1"><style
       id="style1">.cls-1{fill-rule:evenodd;}.cls-1,.cls-2{fill:#fff;}</style></defs><g
     inkscape:label="Layer 1"
     inkscape:groupmode="layer"
     id="layer1"
     transform="translate(-15.075281,-50.341846)"><g
       id="g1"
       transform="matrix(0.01428531,0,0,0.01428531,15.075281,50.341989)"
       style="stroke-width:18.5214"><path
         class="cls-2"
         d="m 619.12,234.11 -66.81,-12.42 c -1.63,-0.3 -3.41,-1.83 -3.95,-3.4 l -20.48,-47.78 c -0.76,-1.48 -0.62,-3.79 0.33,-5.17 l 38.93,-56.74 c 0.93,-1.37 0.75,-3.44 -0.43,-4.62 L 518.09,55.36 c -1.17,-1.17 -3.25,-1.37 -4.61,-0.43 l -57.73,39.62 c -1.37,0.94 -3.71,1.11 -5.19,0.37 L 404.25,75.96 c -1.57,-0.52 -3.11,-2.28 -3.41,-3.91 L 387.98,2.95 c -0.3,-1.63 -1.91,-2.96 -3.56,-2.96 h -68.77 c -1.65,0 -3.26,1.33 -3.56,2.96 l -12.86,69.1 c -0.31,1.63 -1.84,3.39 -3.41,3.91 L 249.5,94.92 c -1.49,0.73 -3.83,0.56 -5.19,-0.37 L 186.58,54.93 c -1.37,-0.94 -3.45,-0.75 -4.62,0.43 l -48.62,48.62 c -1.17,1.17 -1.37,3.25 -0.43,4.62 l 38.93,56.74 c 0.93,1.37 1.08,3.69 0.32,5.17 l -20.48,47.78 c -0.54,1.57 -2.32,3.1 -3.95,3.4 l -66.81,12.42 c -1.63,0.31 -2.96,1.91 -2.96,3.57 v 68.76 c 0,1.66 1.34,3.27 2.97,3.57 l 65.17,12.13 c 1.63,0.3 3.37,1.85 3.87,3.43 l 20.35,50.82 c 0.73,1.49 0.56,3.82 -0.39,5.19 l -37.02,53.94 c -0.93,1.37 -0.74,3.45 0.43,4.62 l 48.63,48.62 c 1.17,1.17 3.25,1.36 4.62,0.43 l 52.99,-36.37 c 1.37,-0.93 3.65,-1.01 5.08,-0.17 l 23.37,12.48 c 1.48,0.76 3.21,0.12 3.84,-1.41 l 48.18,-116.43 c 0.64,-1.53 0,-3.49 -1.41,-4.35 l -5.85,-3.58 c -1.08,-0.66 -2.55,-1.79 -3.7,-2.83 C 287.99,323.02 274,299.39 274,272.48 c 0,-42 34.05,-76.04 76.04,-76.04 41.99,0 76.04,34.05 76.04,76.04 0,26.91 -13.99,50.55 -35.09,64.05 -1.14,1.04 -2.61,2.17 -3.69,2.83 l -5.85,3.58 c -1.41,0.87 -2.05,2.82 -1.41,4.35 l 48.18,116.43 c 0.63,1.53 2.36,2.17 3.84,1.41 l 23.37,-12.48 c 1.43,-0.83 3.71,-0.76 5.08,0.17 l 52.99,36.37 c 1.37,0.93 3.45,0.74 4.61,-0.43 l 48.63,-48.62 c 1.17,-1.17 1.37,-3.26 0.43,-4.62 l -37.02,-53.94 c -0.93,-1.37 -1.11,-3.7 -0.38,-5.19 l 20.35,-50.82 c 0.5,-1.58 2.23,-3.13 3.87,-3.43 l 65.17,-12.13 c 1.63,-0.3 2.96,-1.91 2.96,-3.57 v -68.76 c 0.01,-1.66 -1.32,-3.26 -2.95,-3.57"
         id="path1"
         style="stroke-width:18.5214" /><path
         class="cls-1"
         d="m 185.31,734.72 h 14.68 v -49.8 c 0,-17.99 -12.38,-24.04 -30.37,-24.04 -10.94,0 -19,2.87 -24.61,10.65 l 11.51,8.78 c 2.59,-4.17 6.19,-5.62 13.82,-5.62 10.51,0 14.97,2.45 14.97,9.36 v 7.63 h -20.3 c -15.69,0 -23.75,9.94 -23.75,21.59 0,12.67 9.5,22.31 25.76,22.31 9.93,0 14.97,-2.3 17.99,-7.34 h 0.29 v 6.48 z m 0,-25.62 c 0,11.38 -4.17,12.67 -16.41,12.67 -9.93,0 -13.82,-4.32 -13.82,-9.21 0,-5.33 4.03,-8.79 12.67,-8.79 h 17.56 z"
         id="path2"
         style="stroke-width:18.5214" /><path
         class="cls-1"
         d="m 216.12,734.72 h 14.68 v -43.9 c 0,-10.64 7.06,-15.26 14.25,-15.26 3.74,0 6.19,1.01 9.64,3.6 l 10.65,-12.67 c -4.46,-3.45 -9.35,-5.61 -15.26,-5.61 -7.77,0 -14.4,2.88 -19,8.64 h -0.29 v -7.77 h -14.68 v 72.97 z"
         id="path3"
         style="stroke-width:18.5214" /><path
         class="cls-1"
         d="m 309.26,734.72 h 14.68 V 632.23 h -14.68 v 37.28 c -5.47,-5.18 -11.37,-8.64 -18.86,-8.64 -8.92,0 -15.4,4.02 -19.57,9.5 -4.03,5.17 -5.18,9.92 -5.18,27.78 0,17.86 1.15,22.73 5.18,27.92 4.17,5.47 10.65,9.5 19.57,9.5 7.49,0 14.25,-3.46 18.86,-8.49 v 7.63 z m -14.39,-59.16 c 13.68,0 14.4,12.1 14.4,22.61 0,10.51 -0.72,22.73 -14.4,22.73 -13.68,0 -14.54,-11.37 -14.54,-22.73 0,-11.36 0.72,-22.61 14.54,-22.61"
         id="path4"
         style="stroke-width:18.5214" /><polygon
         class="cls-1"
         points="383.61,683.62 398.87,734.72 411.83,734.72 435.14,661.75 419.59,661.75 405.64,712.84 405.34,712.84 388.79,661.75 378.14,661.75 361.59,712.84 361.3,712.84 347.34,661.75 331.8,661.75 355.11,734.72 368.07,734.72 383.32,683.62 "
         id="polygon4"
         style="stroke-width:18.5214" /><path
         class="cls-1"
         d="M 480.32,734.72 H 495 v -49.8 c 0,-17.99 -12.38,-24.04 -30.37,-24.04 -10.94,0 -19,2.87 -24.62,10.65 l 11.52,8.78 c 2.59,-4.17 6.18,-5.62 13.81,-5.62 10.51,0 14.97,2.45 14.97,9.36 v 7.63 h -20.3 c -15.68,0 -23.75,9.94 -23.75,21.59 0,12.67 9.5,22.31 25.77,22.31 9.93,0 14.97,-2.3 18,-7.34 h 0.28 v 6.48 0 z m 0,-25.62 c 0,11.38 -4.17,12.67 -16.41,12.67 -9.93,0 -13.82,-4.32 -13.82,-9.21 0,-5.33 4.03,-8.79 12.67,-8.79 h 17.56 z"
         id="path5"
         style="stroke-width:18.5214" /><path
         class="cls-1"
         d="m 511.14,734.72 h 14.68 v -43.9 c 0,-10.64 7.05,-15.26 14.25,-15.26 3.75,0 6.19,1.01 9.64,3.6 l 10.65,-12.67 c -4.46,-3.45 -9.36,-5.61 -15.26,-5.61 -7.77,0 -14.39,2.88 -19,8.64 h -0.29 v -7.77 h -14.68 v 72.97 z"
         id="path6"
         style="stroke-width:18.5214" /><path
         class="cls-1"
         d="m 620.79,703.78 v -12.1 c 0,-18.85 -13.96,-30.8 -30.07,-30.8 -14.11,0 -30.08,9.21 -30.08,37.56 0,29.94 17.41,37.14 32.39,37.14 9.79,0 19.14,-3.45 26.34,-11.8 l -10.65,-9.07 c -4.32,4.47 -10.37,7.06 -15.97,7.06 -10.08,0 -17.41,-6.05 -17.41,-17.99 h 45.47 z m -45.47,-12.1 c 0.28,-11.08 6.76,-16.99 15.4,-16.99 8.64,0 14.97,5.91 15.4,16.99 z"
         id="path7"
         style="stroke-width:18.5214" /><path
         class="cls-1"
         d="m 0,582.9 c 0,15.83 2.3,21.88 7.91,28.07 4.03,4.46 10.8,9.35 22.17,9.35 11.37,0 18.13,-4.89 22.17,-9.35 5.61,-6.19 7.92,-12.24 7.92,-28.07 0,-15.83 -2.3,-21.74 -7.92,-27.92 -4.03,-4.46 -10.8,-9.36 -22.17,-9.36 -11.37,0 -18.14,4.9 -22.17,9.36 C 2.3,561.17 0,567.21 0,582.9 m 45.48,0.14 c 0,10.51 -0.86,13.38 -3.6,17.27 -2.16,3.02 -6.77,5.33 -11.8,5.33 -5.03,0 -9.64,-2.3 -11.8,-5.33 -2.74,-3.89 -3.6,-6.76 -3.6,-17.41 0,-10.65 0.87,-13.39 3.6,-17.27 2.16,-3.02 6.76,-5.33 11.8,-5.33 5.04,0 9.64,2.3 11.8,5.33 2.74,3.88 3.6,6.76 3.6,17.41"
         id="path8"
         style="stroke-width:18.5214" /><path
         class="cls-1"
         d="m 201.05,588.51 v -12.09 c 0,-18.86 -13.96,-30.81 -30.08,-30.81 -14.11,0 -30.08,9.22 -30.08,37.57 0,29.93 17.41,37.13 32.38,37.13 9.79,0 19.14,-3.45 26.34,-11.8 l -10.65,-9.06 c -4.32,4.46 -10.36,7.06 -15.97,7.06 -10.08,0 -17.42,-6.05 -17.42,-18 z m -45.48,-12.08 c 0.29,-11.09 6.77,-16.99 15.4,-16.99 8.63,0 14.97,5.9 15.4,16.99 z"
         id="path9"
         style="stroke-width:18.5214" /><path
         class="cls-1"
         d="m 213.58,619.45 h 14.68 v -43.46 c 0,-9.94 6.19,-15.69 14.54,-15.69 8.35,0 14.4,5.75 14.4,15.69 v 43.46 h 14.68 v -48.5 c 0,-16.56 -12.95,-25.34 -24.32,-25.34 -7.77,0 -14.4,2.88 -19,8.64 h -0.29 v -7.77 h -14.68 v 72.97 z"
         id="path10"
         style="stroke-width:18.5214" /><path
         class="cls-1"
         d="m 311.57,607.22 c 9.36,8.78 20.3,13.1 32.1,13.1 16.98,0 30.23,-8.2 30.23,-22.45 0,-11.65 -6.04,-20.87 -21.16,-21.88 l -12.09,-0.86 c -7.34,-0.58 -9.64,-3.75 -9.64,-6.91 0,-5.03 3.17,-8.78 12.52,-8.78 7.92,0 13.83,2.74 19.58,6.76 l 9.06,-10.64 c -7.2,-6.05 -15.83,-9.94 -28.65,-9.94 -15.4,0 -27.2,7.63 -27.2,22.45 0,12.52 8.92,19.72 21.01,20.73 l 12.96,1.15 c 5.04,0.43 8.92,2.02 8.92,7.2 0,6.19 -6.05,9.35 -14.4,9.35 -9.79,0 -16.7,-3.16 -23.03,-9.35 l -10.22,10.07 z"
         id="path11"
         style="stroke-width:18.5214" /><path
         class="cls-1"
         d="m 382.24,582.9 c 0,15.83 2.31,21.88 7.92,28.07 4.03,4.46 10.79,9.35 22.16,9.35 11.37,0 18.14,-4.89 22.17,-9.35 5.61,-6.19 7.91,-12.24 7.91,-28.07 0,-15.83 -2.3,-21.74 -7.91,-27.92 -4.03,-4.46 -10.79,-9.36 -22.17,-9.36 -11.38,0 -18.13,4.9 -22.16,9.36 -5.61,6.19 -7.92,12.23 -7.92,27.92 m 45.48,0.14 c 0,10.51 -0.86,13.38 -3.6,17.27 -2.16,3.02 -6.76,5.33 -11.8,5.33 -5.04,0 -9.64,-2.3 -11.79,-5.33 -2.74,-3.89 -3.6,-6.76 -3.6,-17.41 0,-10.65 0.87,-13.39 3.6,-17.27 2.15,-3.02 6.76,-5.33 11.79,-5.33 5.03,0 9.64,2.3 11.8,5.33 2.74,3.88 3.6,6.76 3.6,17.41"
         id="path12"
         style="stroke-width:18.5214" /><path
         class="cls-1"
         d="m 454.94,594.99 c 0,16.55 12.96,25.33 24.47,25.33 7.62,0 14.25,-2.88 18.85,-8.64 h 0.28 v 7.78 h 14.68 v -72.98 h -14.68 v 43.47 c 0,9.93 -6.19,15.69 -14.4,15.69 -8.21,0 -14.53,-5.76 -14.53,-15.69 v -43.47 h -14.68 c 0,0 0,48.51 0,48.51 z"
         id="path13"
         style="stroke-width:18.5214" /><path
         class="cls-1"
         d="M 529.32,619.45 H 544 v -43.9 c 0,-10.65 7.05,-15.26 14.25,-15.26 3.75,0 6.19,1.01 9.64,3.6 l 10.65,-12.67 c -4.47,-3.45 -9.35,-5.61 -15.26,-5.61 -7.77,0 -14.4,2.88 -19,8.64 H 544 v -7.77 h -14.68 z"
         id="path14"
         style="stroke-width:18.5214" /><path
         class="cls-1"
         d="m 625.31,598.01 c -3.6,4.46 -8.78,7.63 -14.82,7.63 -11.94,0 -19,-6.77 -19,-22.61 0,-15.84 7.06,-22.73 19,-22.73 6.04,0 11.23,3.17 14.82,7.63 l 10.79,-9.64 c -6.33,-7.34 -15.11,-12.67 -26.19,-12.67 -16.84,0 -33.1,10.65 -33.1,37.42 0,26.77 16.26,37.28 33.1,37.28 11.08,0 19.87,-5.33 26.19,-12.66 l -10.79,-9.64 z"
         id="path15"
         style="stroke-width:18.5214" /><path
         class="cls-1"
         d="m 700,588.51 v -12.09 c 0,-18.86 -13.97,-30.81 -30.08,-30.81 -14.11,0 -30.08,9.22 -30.08,37.57 0,29.93 17.41,37.13 32.39,37.13 9.79,0 19.15,-3.45 26.34,-11.8 l -10.65,-9.06 c -4.32,4.46 -10.36,7.06 -15.97,7.06 -10.08,0 -17.41,-6.05 -17.41,-18 h 45.48 z m -45.48,-12.08 c 0.28,-11.09 6.76,-16.99 15.4,-16.99 8.64,0 14.96,5.9 15.4,16.99 z"
         id="path16"
         style="stroke-width:18.5214" /><path
         class="cls-2"
         d="m 101.77,605.64 c 13.82,0 14.54,-11.38 14.54,-22.6 0,-11.22 -0.72,-22.74 -14.54,-22.74 -13.82,0 -14.4,12.09 -14.4,22.74 0,10.65 0.72,22.6 14.4,22.6 M 72.64,734.72 V 546.49 h 14.74 v 7.63 c 4.61,-5.04 11.37,-8.49 18.86,-8.49 8.92,0 15.4,4.03 19.58,9.5 4.03,5.18 5.18,9.93 5.18,27.92 0,17.99 -1.15,22.6 -5.18,27.77 -4.17,5.47 -10.66,9.5 -19.58,9.5 -7.49,0 -13.39,-3.45 -18.86,-8.64 l -0.05,57.83 c 4.89,-5.75 11.51,-8.64 19.28,-8.64 11.37,0 24.32,8.78 24.32,25.33 v 48.51 h -14.68 v -43.47 c 0,-9.94 -6.19,-15.69 -14.4,-15.69 -8.21,0 -14.53,5.75 -14.53,15.69 v 43.47 H 72.64 Z"
         id="path17"
         style="stroke-width:18.5214" /></g></g></svg>
